<?xml version="1.0" encoding="utf-8"?>
<COLLADA xmlns="http://www.collada.org/2005/11/COLLADASchema" version="1.4.1" xmlns:xsi="http://www.w3.org/2001/XMLSchema-instance">
  <asset>
    <contributor>
      <author>Blender User</author>
      <authoring_tool>Blender 2.91.2 commit date:2021-01-19, commit time:16:15, hash:5be9ef417703</authoring_tool>
    </contributor>
    <created>2021-05-23T17:09:30</created>
    <modified>2021-05-23T17:09:30</modified>
    <unit name="meter" meter="1"/>
    <up_axis>Z_UP</up_axis>
  </asset>
  <library_effects>
    <effect id="Material_008-effect">
      <profile_COMMON>
        <newparam sid="rink_png-surface">
          <surface type="2D">
            <init_from>rink_png</init_from>
          </surface>
        </newparam>
        <newparam sid="rink_png-sampler">
          <sampler2D>
            <source>rink_png-surface</source>
          </sampler2D>
        </newparam>
        <technique sid="common">
          <lambert>
            <emission>
              <color sid="emission">0 0 0 1</color>
            </emission>
            <diffuse>
              <texture texture="rink_png-sampler" texcoord="UVMap"/>
            </diffuse>
            <reflectivity>
              <float sid="specular">0.2</float>
            </reflectivity>
            <index_of_refraction>
              <float sid="ior">1.45</float>
            </index_of_refraction>
          </lambert>
        </technique>
      </profile_COMMON>
    </effect>
  </library_effects>
  <library_images>
    <image id="rink_png" name="rink_png">
      <init_from>rink.png</init_from>
    </image>
  </library_images>
  <library_materials>
    <material id="Material_008-material" name="Material.008">
      <instance_effect url="#Material_008-effect"/>
    </material>
  </library_materials>
  <library_geometries>
    <geometry id="Plane_013-mesh" name="Plane.013">
      <mesh>
        <source id="Plane_013-mesh-positions">
          <float_array id="Plane_013-mesh-positions-array" count="147">14.5 72.00002 0 14.5 100 0 42.5 72.00003 0 41.96198 77.46256 0 40.36861 82.71517 0 37.78113 87.55599 0 34.29896 91.79901 0 30.05594 95.28118 0 25.2151 97.86865 0 19.96249 99.462 0 -14.5 72.00002 0 -14.5 100 0 0 100 0 -42.5 72.00003 0 0 72.00002 0 -41.96198 77.46256 0 -40.36861 82.71517 0 -37.78113 87.55599 0 -34.29896 91.79901 0 -30.05594 95.28118 0 -25.2151 97.86865 0 -19.96249 99.462 0 14.5 -72.00002 0 14.5 -100 0 42.5 0 0 14.5 0 0 42.5 -72.00003 0 41.96198 -77.46256 0 40.36861 -82.71517 0 37.78113 -87.55599 0 34.29896 -91.79901 0 30.05594 -95.28118 0 25.2151 -97.86865 0 19.96249 -99.462 0 -14.5 -72.00002 0 -14.5 -100 0 -42.5 0 0 -14.5 0 0 0 0 0 0 -100 0 -42.5 -72.00003 0 0 -72.00002 0 -41.96198 -77.46256 0 -40.36861 -82.71517 0 -37.78113 -87.55599 0 -34.29896 -91.79901 0 -30.05594 -95.28118 0 -25.2151 -97.86865 0 -19.96249 -99.462 0</float_array>
          <technique_common>
            <accessor source="#Plane_013-mesh-positions-array" count="49" stride="3">
              <param name="X" type="float"/>
              <param name="Y" type="float"/>
              <param name="Z" type="float"/>
            </accessor>
          </technique_common>
        </source>
        <source id="Plane_013-mesh-normals">
          <float_array id="Plane_013-mesh-normals-array" count="3">0 0 1</float_array>
          <technique_common>
            <accessor source="#Plane_013-mesh-normals-array" count="1" stride="3">
              <param name="X" type="float"/>
              <param name="Y" type="float"/>
              <param name="Z" type="float"/>
            </accessor>
          </technique_common>
        </source>
        <source id="Plane_013-mesh-map-0">
          <float_array id="Plane_013-mesh-map-0-array" count="336">0.5001876 1.00146 0.1400794 0.6719486 0.5001876 0.6719486 0.5001876 0.6719486 0.1400794 0.5013098 0.5001876 0.5013098 0.1400794 0.6719486 3.77446e-5 0.5013098 0.1400794 0.5013098 0.1400794 0.6719486 0.1400794 1.00146 0.1127585 0.9951276 0.1400794 0.6719486 0.1127585 0.9951276 0.08648794 0.9763767 0.1400794 0.6719486 0.08648794 0.9763767 0.06227642 0.9459265 0.1400794 0.6719486 0.06227642 0.9459265 0.0410549 0.9049475 0.1400794 0.6719486 0.0410549 0.9049475 0.02363878 0.8550148 0.1400794 0.6719486 0.02363878 0.8550148 0.01069784 0.7980459 0.1400794 0.6719486 0.01069784 0.7980459 0.002728521 0.7362326 0.1400794 0.6719486 0.002728521 0.7362326 3.77446e-5 0.6719486 0.1400794 0.3306696 0.5001876 0.001159667 0.5001876 0.3306696 0.1400794 0.5013098 0.5001876 0.3306696 0.5001876 0.5013098 3.77446e-5 0.5013098 0.1400794 0.3306696 0.1400794 0.5013098 0.1400794 0.3306696 0.1127585 0.00749123 0.1400794 0.001159667 0.1400794 0.3306696 0.08648794 0.02624219 0.1127585 0.00749123 0.1400794 0.3306696 0.06227642 0.05669236 0.08648794 0.02624219 0.1400794 0.3306696 0.0410549 0.09767138 0.06227642 0.05669236 0.1400794 0.3306696 0.02363878 0.147604 0.0410549 0.09767138 0.1400794 0.3306696 0.01069784 0.2045723 0.02363878 0.147604 0.1400794 0.3306696 0.002728521 0.2663862 0.01069784 0.2045723 0.1400794 0.3306696 3.77446e-5 0.3306696 0.002728521 0.2663862 0.8602954 0.6719486 0.5001876 1.00146 0.5001876 0.6719486 0.8602954 0.5013098 0.5001876 0.6719486 0.5001876 0.5013098 1.000338 0.5013098 0.8602954 0.6719486 0.8602954 0.5013098 0.8602954 0.6719486 0.8876161 0.9951276 0.8602958 1.00146 0.8602954 0.6719486 0.9138872 0.9763767 0.8876161 0.9951276 0.8602954 0.6719486 0.9380985 0.9459265 0.9138872 0.9763767 0.8602954 0.6719486 0.9593202 0.9049475 0.9380985 0.9459265 0.8602954 0.6719486 0.9767364 0.8550148 0.9593202 0.9049475 0.8602954 0.6719486 0.9896774 0.7980459 0.9767364 0.8550148 0.8602954 0.6719486 0.9976466 0.7362326 0.9896774 0.7980459 0.8602954 0.6719486 1.000338 0.6719486 0.9976466 0.7362326 0.5001876 0.001159667 0.8602954 0.3306696 0.5001876 0.3306696 0.5001876 0.3306696 0.8602954 0.5013098 0.5001876 0.5013098 0.8602954 0.3306696 1.000338 0.5013098 0.8602954 0.5013098 0.8602954 0.3306696 0.8602958 0.001159667 0.8876161 0.00749123 0.8602954 0.3306696 0.8876161 0.00749123 0.9138872 0.02624219 0.8602954 0.3306696 0.9138872 0.02624219 0.9380985 0.05669236 0.8602954 0.3306696 0.9380985 0.05669236 0.9593202 0.09767138 0.8602954 0.3306696 0.9593202 0.09767138 0.9767364 0.147604 0.8602954 0.3306696 0.9767364 0.147604 0.9896774 0.2045723 0.8602954 0.3306696 0.9896774 0.2045723 0.9976466 0.2663862 0.8602954 0.3306696 0.9976466 0.2663862 1.000338 0.3306696 0.5001876 1.00146 0.1400794 1.00146 0.1400794 0.6719486 0.5001876 0.6719486 0.1400794 0.6719486 0.1400794 0.5013098 0.1400794 0.6719486 3.77446e-5 0.6719486 3.77446e-5 0.5013098 0.1400794 0.3306696 0.1400794 0.001159667 0.5001876 0.001159667 0.1400794 0.5013098 0.1400794 0.3306696 0.5001876 0.3306696 3.77446e-5 0.5013098 3.77446e-5 0.3306696 0.1400794 0.3306696 0.8602954 0.6719486 0.8602958 1.00146 0.5001876 1.00146 0.8602954 0.5013098 0.8602954 0.6719486 0.5001876 0.6719486 1.000338 0.5013098 1.000338 0.6719486 0.8602954 0.6719486 0.5001876 0.001159667 0.8602958 0.001159667 0.8602954 0.3306696 0.5001876 0.3306696 0.8602954 0.3306696 0.8602954 0.5013098 0.8602954 0.3306696 1.000338 0.3306696 1.000338 0.5013098</float_array>
          <technique_common>
            <accessor source="#Plane_013-mesh-map-0-array" count="168" stride="2">
              <param name="S" type="float"/>
              <param name="T" type="float"/>
            </accessor>
          </technique_common>
        </source>
        <vertices id="Plane_013-mesh-vertices">
          <input semantic="POSITION" source="#Plane_013-mesh-positions"/>
        </vertices>
        <triangles material="Material_008-material" count="56">
          <input semantic="VERTEX" source="#Plane_013-mesh-vertices" offset="0"/>
          <input semantic="NORMAL" source="#Plane_013-mesh-normals" offset="1"/>
          <input semantic="TEXCOORD" source="#Plane_013-mesh-map-0" offset="2" set="0"/>
          <p>24 0 0 0 0 1 25 0 2 25 0 3 14 0 4 38 0 5 0 0 6 12 0 7 14 0 8 0 0 9 2 0 10 3 0 11 0 0 12 3 0 13 4 0 14 0 0 15 4 0 16 5 0 17 0 0 18 5 0 19 6 0 20 0 0 21 6 0 22 7 0 23 0 0 24 7 0 25 8 0 26 0 0 27 8 0 28 9 0 29 0 0 30 9 0 31 1 0 32 10 0 33 36 0 34 37 0 35 14 0 36 37 0 37 38 0 38 12 0 39 10 0 40 14 0 41 10 0 42 15 0 43 13 0 44 10 0 45 16 0 46 15 0 47 10 0 48 17 0 49 16 0 50 10 0 51 18 0 52 17 0 53 10 0 54 19 0 55 18 0 56 10 0 57 20 0 58 19 0 59 10 0 60 21 0 61 20 0 62 10 0 63 11 0 64 21 0 65 22 0 66 24 0 67 25 0 68 41 0 69 25 0 70 38 0 71 39 0 72 22 0 73 41 0 74 22 0 75 27 0 76 26 0 77 22 0 78 28 0 79 27 0 80 22 0 81 29 0 82 28 0 83 22 0 84 30 0 85 29 0 86 22 0 87 31 0 88 30 0 89 22 0 90 32 0 91 31 0 92 22 0 93 33 0 94 32 0 95 22 0 96 23 0 97 33 0 98 36 0 99 34 0 100 37 0 101 37 0 102 41 0 103 38 0 104 34 0 105 39 0 106 41 0 107 34 0 108 40 0 109 42 0 110 34 0 111 42 0 112 43 0 113 34 0 114 43 0 115 44 0 116 34 0 117 44 0 118 45 0 119 34 0 120 45 0 121 46 0 122 34 0 123 46 0 124 47 0 125 34 0 126 47 0 127 48 0 128 34 0 129 48 0 130 35 0 131 24 0 132 2 0 133 0 0 134 25 0 135 0 0 136 14 0 137 0 0 138 1 0 139 12 0 140 10 0 141 13 0 142 36 0 143 14 0 144 10 0 145 37 0 146 12 0 147 11 0 148 10 0 149 22 0 150 26 0 151 24 0 152 41 0 153 22 0 154 25 0 155 39 0 156 23 0 157 22 0 158 36 0 159 40 0 160 34 0 161 37 0 162 34 0 163 41 0 164 34 0 165 35 0 166 39 0 167</p>
        </triangles>
      </mesh>
    </geometry>
  </library_geometries>
  <library_visual_scenes>
    <visual_scene id="Scene" name="Scene">
      <node id="Ice" name="Ice" type="NODE">
        <matrix sid="transform">1 0 0 0 0 1 0 0 0 0 1 0 0 0 0 1</matrix>
        <instance_geometry url="#Plane_013-mesh" name="Ice">
          <bind_material>
            <technique_common>
              <instance_material symbol="Material_008-material" target="#Material_008-material">
                <bind_vertex_input semantic="UVMap" input_semantic="TEXCOORD" input_set="0"/>
              </instance_material>
            </technique_common>
          </bind_material>
        </instance_geometry>
      </node>
    </visual_scene>
  </library_visual_scenes>
  <scene>
    <instance_visual_scene url="#Scene"/>
  </scene>
</COLLADA>